# xmcd
#
# Track frame offsets:
#	150
#	10540
#	21402
#	34740
#	45110
#	57410
#	69977
#	91297
#	107167
#	124570
#	139285
#	149142
#	158552
#	170185
#	196980
#	209597
#	225640
#	244170
#
# Disc length: 3435
#
# Revision: 3
# Processed by: cddbd v1.5.1PL0 Copyright (c) Steve Scherf et al.
# Submitted via: dBpowerAMP V4.0
# Normalized: r1:TSWAP
#
DISCID=fc0d6912
DTITLE=Various Artist - The Grand Hit Pack cd 3
DYEAR=1983
DGENRE=Various
TTITLE0=Marcie Blane - Bobby's Girl
TTITLE1=Guy Mitchell - Singing The Blues
TTITLE2=Honeybus - I Can't Let Maggie Go
TTITLE3=Lovin' Spoonful - Daydream
TTITLE4=The Shirelles - Will You Still Love me Tomorrow
TTITLE5=B.J. Thomas - Hooked on a Feeling
TTITLE6=Sky - Toccata
TTITLE7=Ray Stevens - Everything is Beautiful
TTITLE8=Blue Mink - Melting Pot
TTITLE9=Osibisa - The Coffee Song
TTITLE10=Johnny Cash - Ballad of a Teenage Queen
TTITLE11=Eddie Hodges - I'm Gonna Knock on Your Door
TTITLE12=Jerry Butler - Moon River
TTITLE13=Gibson Brothers - Que Sera mi Vida
TTITLE14=Sandie Shaw - Always Something There to Remind me (Letter to Breshnev Version)
TTITLE15=The Flowerpot Men - Let's go to San Francisco
TTITLE16=Billy Ocean - Caribbean Queen (no More Love on The Run)
TTITLE17=They Don't Know - / Tracey Ullman
EXTD=Marketed and distributed in the Benelux by Disky Communications B.V. Hoorn.
EXTT0=
EXTT1=
EXTT2=
EXTT3=
EXTT4=
EXTT5=
EXTT6=
EXTT7=
EXTT8=
EXTT9=
EXTT10=
EXTT11=
EXTT12=
EXTT13=
EXTT14=
EXTT15=
EXTT16=
EXTT17=
PLAYORDER=
